# xmcd
#
# Track frame offsets: 
#        150
#        17793
#        38363
#        55405
#        68260
#        92503
#        115958
#        132835
#        152185
#        173685
#        190083
#
# Disc length: 2908 seconds
#
# Revision: 16
# Processed by: cddbd v1.4PL0 Copyright (c) Steve Scherf et al.
# Submitted via: ExactAudioCopy v0.95a4
#
DISCID=800b5a0b
DTITLE=Various Artist - Rhythm Country and Blues
DYEAR=1994
DGENRE=Country
TTITLE0=Ain't Nothing Like The Real Thing-Vince Gill and Gladys Knight
TTITLE1=Funny How Time Slips Away-Al Green and Lyle Lovett
TTITLE2=I Fall To Pieces-Aaron Neville and Trisha Yearwood
TTITLE3=Somethin' Else-Little Richard and Tanya Tucker
TTITLE4=When Something Is Wrong With My Baby-Patti Labelle and Travis Tr
TTITLE4=itt
TTITLE5=Rainy Night In Georgia-Sam Moore and Conway Twitty
TTITLE6=Chain Of Fools-Clint Black and Pointer Sisters
TTITLE7=Since I Fell For You-Natalie Cole and Reba McEntire
TTITLE8=Southern Nights-Chet Atkins and Allen Toussaint
TTITLE9=The Weight-The Staple Singers and Marty Stuart
TTITLE10=Patches-George Jones and B.B. King
EXTD=Submited by Edilson Queiroz (edilson.queiroz@ig.com.br) YEAR: 199
EXTD=4
EXTT0=Gill, Vince and Gladys Knight
EXTT1=Green, Al and Lyle Lovett
EXTT2=Neville, Aaron and Trisha Yearwood
EXTT3=Little Richard and Tanya Tucker
EXTT4=LaBelle, Patti and Travis Tritt
EXTT5=Moore, Sam and Conway Twitty
EXTT6=Black, Clint and The Pointer Sisters
EXTT7=Cole, Natalie and Reba McEntire
EXTT8=Atkins, Chet and Allen Toussaint
EXTT9=Staple Singers and Marty Stuart
EXTT10=Jones, George and B.B. King
PLAYORDER=
